<svg width="98" height="33" viewBox="0 0 98 33" fill="none" xmlns="http://www.w3.org/2000/svg">
<circle cx="6" cy="12" r="5" stroke="#1B75C9" stroke-width="2"/>
<circle cx="18" cy="21.8823" r="5" stroke="#1B75C9" stroke-width="2"/>
<path d="M39.8786 24.154C38.8079 24.154 37.8399 23.9707 36.9746 23.604C36.1239 23.2373 35.4493 22.7093 34.9506 22.02C34.4519 21.3307 34.1953 20.5167 34.1806 19.578H37.4806C37.5246 20.2087 37.7446 20.7073 38.1406 21.074C38.5513 21.4407 39.1086 21.624 39.8126 21.624C40.5313 21.624 41.0959 21.4553 41.5066 21.118C41.9173 20.766 42.1226 20.3113 42.1226 19.754C42.1226 19.2993 41.9833 18.9253 41.7046 18.632C41.4259 18.3387 41.0739 18.1113 40.6486 17.95C40.2379 17.774 39.6659 17.5833 38.9326 17.378C37.9353 17.0847 37.1213 16.7987 36.4906 16.52C35.8746 16.2267 35.3393 15.794 34.8846 15.222C34.4446 14.6353 34.2246 13.858 34.2246 12.89C34.2246 11.9807 34.4519 11.1887 34.9066 10.514C35.3613 9.83933 35.9993 9.326 36.8206 8.974C37.6419 8.60733 38.5806 8.424 39.6366 8.424C41.2206 8.424 42.5039 8.81267 43.4866 9.59C44.4839 10.3527 45.0339 11.4233 45.1366 12.802H41.7486C41.7193 12.274 41.4919 11.8413 41.0666 11.504C40.6559 11.152 40.1059 10.976 39.4166 10.976C38.8153 10.976 38.3313 11.13 37.9646 11.438C37.6126 11.746 37.4366 12.1933 37.4366 12.78C37.4366 13.1907 37.5686 13.5353 37.8326 13.814C38.1113 14.078 38.4486 14.298 38.8446 14.474C39.2553 14.6353 39.8273 14.826 40.5606 15.046C41.5579 15.3393 42.3719 15.6327 43.0026 15.926C43.6333 16.2193 44.1759 16.6593 44.6306 17.246C45.0853 17.8327 45.3126 18.6027 45.3126 19.556C45.3126 20.3773 45.0999 21.14 44.6746 21.844C44.2493 22.548 43.6259 23.1127 42.8046 23.538C41.9833 23.9487 41.0079 24.154 39.8786 24.154ZM47.1908 17.862C47.1908 16.63 47.4328 15.5373 47.9168 14.584C48.4155 13.6307 49.0828 12.8973 49.9188 12.384C50.7695 11.8707 51.7155 11.614 52.7568 11.614C53.6662 11.614 54.4582 11.7973 55.1328 12.164C55.8222 12.5307 56.3722 12.9927 56.7828 13.55V11.812H59.8848V24H56.7828V22.218C56.3868 22.79 55.8368 23.2667 55.1328 23.648C54.4435 24.0147 53.6442 24.198 52.7348 24.198C51.7082 24.198 50.7695 23.934 49.9188 23.406C49.0828 22.878 48.4155 22.1373 47.9168 21.184C47.4328 20.216 47.1908 19.1087 47.1908 17.862ZM56.7828 17.906C56.7828 17.158 56.6362 16.52 56.3428 15.992C56.0495 15.4493 55.6535 15.0387 55.1548 14.76C54.6562 14.4667 54.1208 14.32 53.5488 14.32C52.9768 14.32 52.4488 14.4593 51.9648 14.738C51.4808 15.0167 51.0848 15.4273 50.7768 15.97C50.4835 16.498 50.3368 17.1287 50.3368 17.862C50.3368 18.5953 50.4835 19.2407 50.7768 19.798C51.0848 20.3407 51.4808 20.7587 51.9648 21.052C52.4635 21.3453 52.9915 21.492 53.5488 21.492C54.1208 21.492 54.6562 21.3527 55.1548 21.074C55.6535 20.7807 56.0495 20.37 56.3428 19.842C56.6362 19.2993 56.7828 18.654 56.7828 17.906ZM79.789 11.812L76.225 24H72.903L70.681 15.486L68.459 24H65.115L61.529 11.812H64.653L66.809 21.096L69.141 11.812H72.397L74.685 21.074L76.841 11.812H79.789ZM83.0175 10.36C82.4748 10.36 82.0202 10.1913 81.6535 9.854C81.3015 9.502 81.1255 9.06933 81.1255 8.556C81.1255 8.04267 81.3015 7.61733 81.6535 7.28C82.0202 6.928 82.4748 6.752 83.0175 6.752C83.5602 6.752 84.0075 6.928 84.3595 7.28C84.7262 7.61733 84.9095 8.04267 84.9095 8.556C84.9095 9.06933 84.7262 9.502 84.3595 9.854C84.0075 10.1913 83.5602 10.36 83.0175 10.36ZM84.5355 11.812V24H81.4555V11.812H84.5355ZM94.3105 24L91.8025 20.216L89.5805 24H86.2805L90.2625 17.884L86.2365 11.812H89.7125L92.1985 15.574L94.4425 11.812H97.7425L93.7385 17.884L97.7865 24H94.3105Z" fill="white"/>
</svg>
