<svg width="189" height="59" viewBox="0 0 189 59" fill="none" xmlns="http://www.w3.org/2000/svg">
<path d="M0.297936 30.0868C0.816031 32.177 2.36323 33.8101 3.85759 35.4174C5.03299 36.681 6.6877 37.6442 8.08689 38.777C10.7549 40.9349 14.0185 42.3164 17.3966 43.537C19.0513 44.135 20.9793 44.3678 22.4189 45.1916C24.9037 46.6134 27.8818 46.7327 30.5462 47.6427C31.9806 48.133 33.5685 48.7181 35.2936 48.4248C35.5086 48.3888 35.7818 48.6476 36.0478 48.7224C37.8594 49.237 39.6622 49.8509 41.4649 49.2011C42.487 49.5231 43.4844 50.1456 44.2897 50.0105C45.243 49.8509 46.0115 50.2591 46.9154 50.1441C47.4881 50.0709 48.3005 49.9904 48.7446 50.0924C52.1985 50.8831 52.1809 50.9348 53.9149 50.38C54.3625 50.5797 54.6744 50.8069 55.0215 50.8529C55.5942 50.9291 56.19 50.8845 56.7768 50.8961C57.5767 50.9119 58.3627 51.024 58.9354 50.3153C59.0975 50.1139 59.6825 50.1384 60.1159 50.0823C59.2014 49.5518 58.361 49.6497 57.501 50.239C57.2419 50.4173 56.7837 50.5021 56.4489 50.4605C56.3009 50.4418 56.2322 50.0018 56.0824 49.6439C55.3722 49.7302 54.6339 49.8322 53.8902 49.9026C53.5888 49.9314 53.2752 49.9055 52.9739 49.871C51.9641 49.7589 50.9438 49.6726 49.9482 49.5001C48.3286 49.2198 46.7251 49.0545 45.0774 49.3664C44.8183 49.4153 44.4818 49.2241 44.1911 49.1235C43.8827 49.0156 43.6007 48.8201 43.2834 48.7698C41.7345 48.5283 40.1768 48.3198 38.6207 48.1071C37.8771 48.005 37.1193 47.9532 36.3845 47.8181C35.6478 47.683 34.9376 47.4486 34.2028 47.3049C33.431 47.154 32.4671 46.7715 31.8996 47.0016C30.844 47.43 30.7031 46.5588 30.0899 46.4107C27.8572 45.8701 25.6914 45.1457 23.5045 44.4771C19.2012 43.1618 15.1551 41.4438 11.3593 39.3319C7.91419 37.4157 5.02063 35.0925 3.14211 32.006C1.45744 29.2385 1.36584 26.4856 3.34656 23.8045C5.40483 21.0198 8.02346 18.6736 11.6325 17.1541C12.466 16.8033 13.2237 16.3332 14.0643 15.9982C17.0653 14.8036 19.9888 13.4177 23.1221 12.5192C28.2395 11.0529 33.4926 9.89561 38.7035 8.65064C39.9318 8.35738 41.2305 8.27112 42.4747 8.01379C45.5285 7.38125 48.5931 6.79615 51.7087 6.39074C55.9255 5.84158 60.1267 5.18891 64.3614 4.74181C69.1105 4.24153 73.8279 3.54141 78.6441 3.40915C82.0081 3.31715 85.3509 2.77948 88.7168 2.58972C94.8951 2.24038 101.081 1.90399 107.269 1.73867C114.634 1.54172 122.001 1.11474 129.374 1.68404C134.099 2.04775 138.85 2.20445 143.566 2.6271C147.93 3.01813 152.265 3.6248 156.609 4.16103C158.105 4.34504 159.623 4.50605 161.068 4.84964C164.153 5.58425 167.199 6.43243 170.261 7.23174C174.307 8.28982 178.142 9.70442 181.59 11.7501C183.915 13.1288 185.728 14.9028 186.693 17.0994C188.024 20.1227 186.915 22.8571 184.574 25.278C181.641 28.3128 178.144 30.8515 174.272 33.0914C171.936 34.4442 169.482 35.6316 167.082 36.8938C165.864 37.535 164.628 38.1646 163.347 38.7166C161.801 39.3823 160.252 40.0853 158.608 40.541C156.947 41.0025 155.564 41.9858 153.76 42.1641C153.395 42.2 153.055 42.4803 152.727 42.6743C152.003 43.1028 150.292 43.5743 149.395 43.7712C147.823 44.1163 146.343 44.6641 145.035 45.4806C145.042 45.9521 145.372 46.0341 145.846 45.886C146.611 45.646 147.363 45.3771 148.126 45.1341C154.016 43.2494 159.863 41.2627 165.426 38.8044C171.653 36.0528 177.617 32.9893 182.703 28.8518C184.389 27.4803 185.865 26.0529 187.138 24.4542C190.361 20.4088 188.955 16.3288 186.286 13.5011C184.324 11.4194 181.712 9.95169 178.943 8.68229C174.471 6.63083 169.574 5.44912 164.713 4.21278C160.359 3.10726 155.831 2.67024 151.365 1.99744C149.236 1.67685 147.095 1.40083 144.951 1.16362C142.928 0.939357 140.896 0.739529 138.86 0.62596C135.972 0.466387 133.075 0.403132 130.183 0.282374C128.259 0.201865 126.338 0.0537883 124.412 0.0106629C122.722 -0.0267162 121.027 0.0451706 119.335 0.0581062C117.645 0.0710456 115.939 0.183178 114.267 0.0451663C112.602 -0.0914067 111.083 0.533953 109.347 0.295312C107.386 0.0250409 105.301 0.282372 103.278 0.398816C97.045 0.759655 90.8155 1.16506 84.5843 1.54602C83.4883 1.61359 82.3852 1.61503 81.2908 1.69841C78.2722 1.92699 75.257 2.17856 72.2419 2.42871C71.3096 2.50634 70.3722 2.56959 69.4505 2.70616C67.4029 3.01094 65.364 3.36027 63.3197 3.6823C63.1559 3.70818 62.9603 3.6823 62.8017 3.63342C61.8272 3.33728 60.9568 3.68805 60.0703 3.91951C59.739 4.00576 59.4042 4.25015 59.101 4.21853C56.9529 3.99426 54.9899 4.75619 52.9192 4.94739C50.1049 5.20616 47.3173 5.65038 44.5205 6.03422C43.4226 6.18516 42.3195 6.33755 41.2464 6.56901C38.0426 7.26193 34.8496 7.98504 31.6599 8.71678C28.5937 9.41977 25.5099 10.071 22.6499 11.2728C21.6207 11.7056 20.3167 11.6869 19.5218 12.5236C18.0134 12.1957 16.935 13.0339 15.7859 13.5299C13.5162 14.5075 11.3487 15.6431 9.1125 16.6768C7.55999 17.3941 6.43395 18.4954 5.11406 19.4226C3.48755 20.5655 2.16412 21.8449 1.22663 23.389C-0.0668305 25.5195 -0.271248 27.7549 0.304994 30.0839L0.297936 30.0868Z" fill="black"/>
<path d="M124.205 51.4942C123.677 51.605 122.805 51.2257 122.81 52.1248C122.234 52.1201 121.672 52.0312 121.111 52.32C120.698 52.5323 120.147 52.7321 119.689 52.6915C117.617 52.5089 115.799 53.3424 113.838 53.6C111.312 53.9324 108.865 54.6474 106.343 55.0095C102.784 55.5215 99.194 55.915 95.6024 56.2614C91.1231 56.6939 86.6397 57.159 82.1411 57.3651C76.8676 57.6071 71.5749 57.6617 66.2918 57.6399C64.2213 57.6305 62.1547 57.184 60.0845 56.9514C59.5047 56.8859 58.9172 56.8734 58.3336 56.8359C58.2647 56.9921 58.1939 57.1466 58.125 57.3027C58.4197 57.5306 58.6684 57.8771 59.0166 57.9661C60.2203 58.2752 61.445 58.6264 62.6887 58.7217C65.0978 58.9059 67.5203 58.998 69.9351 58.9995C72.3404 59.0011 74.7475 58.8746 77.1565 58.8278C81.2896 58.7498 85.4152 58.4094 89.5443 58.166C96.1018 57.7819 102.554 56.8438 108.951 55.6449C112.543 54.9721 116.13 54.279 119.701 53.5391C121.672 53.1301 123.604 52.5978 125.558 52.131C126.124 51.9952 126.471 51.7767 126.165 51.1133C125.524 51.2366 124.863 51.3553 124.209 51.4942H124.205Z" fill="black"/>
<path d="M149.129 45.02L149.135 44.9961C149.129 45.0041 149.123 45.012 149.117 45.02H149.129Z" fill="black"/>
<path d="M144.245 46.4159C141.737 46.5268 139.561 47.4837 137.267 48.1002C135.972 48.4483 134.745 49.0274 133.404 49.3241C132.617 49.4974 131.796 49.566 131.019 49.7596C130.803 49.8127 130.554 50.1529 130.575 50.3434C130.591 50.4948 130.987 50.7165 131.23 50.7289C131.594 50.7477 131.98 50.6385 132.338 50.537C136.1 49.4802 139.858 48.4171 143.616 47.3494C144.511 47.0949 145.374 46.7406 146.289 46.5658C147.5 46.3347 148.509 45.9366 149.123 45.0234C148.26 45.0781 147.428 44.9969 146.643 45.5448C145.998 45.9944 145.074 46.38 144.247 46.4159H144.245Z" fill="black"/>
<path d="M68.0475 50.7111C69.0349 50.5816 70.0472 50.5815 71.0459 50.502C71.8612 50.4365 72.2286 50.0821 72.0946 49.3686C71.0231 49.2735 70.6824 50.4817 69.5191 50.132C68.6522 49.8714 67.6821 49.8401 66.5742 49.6809C66.8994 50.3474 67.0698 50.8392 68.0475 50.7128V50.7111Z" fill="black"/>
<path d="M57.9295 50.8712C58.6146 50.8275 59.2977 50.7823 60.0038 50.737C60.1129 50.4138 60.2067 50.1329 60.3004 49.8519C60.2697 49.6786 60.241 49.5053 60.2123 49.332C59.4967 50.4607 58.8078 50.2656 58.0309 49.8659C57.8224 49.7598 57.3822 49.9534 57.034 50.0299C56.9498 50.5668 57.1393 50.9211 57.9295 50.8712Z" fill="black"/>
<path d="M130.04 50.1562C128.815 50.4373 127.828 50.6636 126.766 50.9071C127.935 51.8921 129.527 51.5565 130.04 50.1562Z" fill="black"/>
<path d="M62.1874 49.7031C61.9635 50.1027 61.7913 50.4118 61.5156 50.9019C62.4323 50.635 63.3431 51.108 64.1103 50.1886C63.3009 49.9841 62.7421 49.8436 62.1874 49.7031Z" fill="black"/>
<path d="M81.3655 48.9821C81.1627 49.0992 81.0536 49.324 80.7188 49.7064C81.4879 49.644 81.9453 49.6065 82.5251 49.5597C82.2935 48.9603 82.1023 48.5544 81.3655 48.9821Z" fill="black"/>
<path d="M75.1084 49.6707C75.0298 49.6504 74.9055 49.7441 74.5898 49.8689C75.1868 50.3981 75.8681 50.0781 76.4651 50.075C76.0134 49.9377 75.5657 49.7909 75.1064 49.6707H75.1084Z" fill="black"/>
<path d="M64.9523 50.3984C64.937 50.5092 64.9216 50.6185 64.9062 50.7293L65.9893 50.7793C66.0008 50.7012 66.0123 50.6232 66.0218 50.5452C65.6659 50.4968 65.3082 50.4467 64.9523 50.3984Z" fill="black"/>
<path d="M90.3686 48.1022C89.986 48.0257 89.6396 47.9554 89.2148 47.8711C89.5172 48.4154 89.9018 48.4925 90.3686 48.1022Z" fill="black"/>
<path d="M84.1409 48.925C83.9705 48.9906 83.8309 49.1092 83.6797 49.2061C83.9341 49.2061 84.1886 49.2061 84.7532 49.2061C84.3361 49.0094 84.2021 48.9017 84.1427 48.925H84.1409Z" fill="black"/>
<path d="M96.0519 47.2461C95.7573 47.3491 95.4626 47.4506 95.168 47.5537L95.3191 47.8783C95.5984 47.7613 95.8836 47.6488 96.1495 47.5147C96.1764 47.5021 96.0883 47.3382 96.0519 47.2461Z" fill="black"/>
</svg>
